<?xml version="1.0" encoding="utf-8"?>
<!-- Generator: Adobe Illustrator 16.0.3, SVG Export Plug-In . SVG Version: 6.00 Build 0)  -->
<!DOCTYPE svg PUBLIC "-//W3C//DTD SVG 1.1//EN" "http://www.w3.org/Graphics/SVG/1.1/DTD/svg11.dtd">
<svg version="1.1" id="Layer_1" xmlns="http://www.w3.org/2000/svg" xmlns:xlink="http://www.w3.org/1999/xlink" x="0px" y="0px"
	 width="96.333px" height="32px" viewBox="-6.833 0 96.333 32" enable-background="new -6.833 0 96.333 32" xml:space="preserve">
<g>
	<polygon fill="#EF3E33" points="1,11.298 3.92,11.163 3.92,21.141 9.218,21.141 9.218,11.163 12.139,11.298 12.139,6.561 1,6.561 
		1,11.298 	"/>
	<path fill="#EF3E33" d="M21.119,6.561v8.122c0,1.141-0.038,2.146-1.45,2.146c-1.411,0-1.45-1.006-1.45-2.146V6.561H12.92v8.625
		c0,4.253,2.669,6.188,6.749,6.188s6.749-1.935,6.749-6.188V6.561H21.119L21.119,6.561L21.119,6.561z"/>
	<path fill="#EF3E33" d="M40.594,20.039c1.644,0.832,3.771,1.334,5.607,1.334c3.152,0,6.322-1.721,6.322-5.202
		c0-2.476-1.623-3.675-3.866-4.178l-1.199-0.271c-0.405-0.097-1.063-0.174-1.063-0.715c0-0.6,0.679-0.773,1.143-0.773
		c1.141,0,2.165,0.483,3.074,1.102l1.431-3.732c-1.431-0.87-2.958-1.276-4.621-1.276c-3.172,0-6.323,1.934-6.323,5.395
		c0,2.282,1.74,3.5,3.81,3.868l1.063,0.193c0.483,0.097,1.18,0.154,1.18,0.812c0,0.659-0.832,0.871-1.354,0.871
		c-1.219,0-2.359-0.599-3.309-1.334l-0.271-0.213L40.594,20.039L40.594,20.039L40.594,20.039z"/>
	<g>
		<path fill="#FFFFFF" d="M3.036,30.762l0.334,0.805h0.35l-1.274-2.971l-1.309,2.971h0.346l0.343-0.805H3.036L3.036,30.762
			L3.036,30.762z M2.911,30.467H1.953l0.484-1.136L2.911,30.467L2.911,30.467L2.911,30.467z"/>
		<path fill="#FFFFFF" d="M5.587,29.121c-0.15-0.277-0.417-0.439-0.732-0.439c-0.422,0-0.794,0.281-0.794,0.723
			c0,0.404,0.286,0.574,0.617,0.726l0.173,0.075c0.263,0.12,0.522,0.232,0.522,0.563c0,0.319-0.278,0.553-0.583,0.553
			s-0.526-0.235-0.568-0.525l-0.308,0.087c0.09,0.438,0.429,0.731,0.884,0.731c0.492,0,0.891-0.379,0.891-0.875
			c0-0.45-0.312-0.635-0.68-0.797L4.82,29.857c-0.191-0.086-0.444-0.198-0.444-0.443c0-0.26,0.219-0.439,0.471-0.439
			c0.24,0,0.376,0.112,0.488,0.309L5.587,29.121L5.587,29.121L5.587,29.121z"/>
		<path fill="#FFFFFF" d="M7.705,29.121c-0.15-0.277-0.418-0.439-0.733-0.439c-0.421,0-0.794,0.281-0.794,0.723
			c0,0.404,0.286,0.574,0.617,0.726l0.173,0.075c0.264,0.12,0.522,0.232,0.522,0.563c0,0.319-0.278,0.553-0.583,0.553
			c-0.304,0-0.526-0.235-0.567-0.525l-0.309,0.087c0.091,0.438,0.429,0.731,0.884,0.731c0.492,0,0.892-0.379,0.892-0.875
			c0-0.45-0.313-0.635-0.681-0.797l-0.188-0.084c-0.191-0.086-0.443-0.197-0.443-0.442c0-0.261,0.218-0.438,0.47-0.438
			c0.241,0,0.376,0.111,0.489,0.308L7.705,29.121L7.705,29.121L7.705,29.121z"/>
		<path fill="#FFFFFF" d="M9.619,28.682c-0.809,0-1.478,0.657-1.478,1.471c0,0.816,0.669,1.461,1.478,1.461s1.478-0.645,1.478-1.461
			C11.097,29.339,10.428,28.682,9.619,28.682L9.619,28.682L9.619,28.682z M9.619,28.975c0.65,0,1.162,0.53,1.162,1.174
			c0,0.64-0.519,1.172-1.162,1.172s-1.162-0.532-1.162-1.172C8.457,29.505,8.969,28.975,9.619,28.975L9.619,28.975L9.619,28.975z"/>
		<path fill="#FFFFFF" d="M13.713,28.959c-0.252-0.188-0.53-0.277-0.846-0.277c-0.813,0-1.479,0.666-1.479,1.479
			c0,0.805,0.677,1.453,1.479,1.453c0.301,0,0.602-0.1,0.846-0.276v-0.392c-0.226,0.226-0.538,0.375-0.857,0.375
			c-0.636,0-1.15-0.549-1.15-1.172c0-0.625,0.511-1.174,1.143-1.174c0.327,0,0.64,0.144,0.865,0.377L13.713,28.959L13.713,28.959
			L13.713,28.959z"/>
		<polygon fill="#FFFFFF" points="14.592,28.729 14.275,28.729 14.275,31.564 14.592,31.564 14.592,28.729 		"/>
		<path fill="#FFFFFF" d="M16.809,30.762l0.334,0.805h0.35l-1.274-2.971l-1.309,2.971h0.346l0.343-0.805H16.809L16.809,30.762
			L16.809,30.762z M16.685,30.467h-0.959l0.484-1.136L16.685,30.467L16.685,30.467L16.685,30.467z"/>
		<polygon fill="#FFFFFF" points="18.271,29.023 18.963,29.023 18.963,28.729 17.271,28.729 17.271,29.023 17.955,29.023 
			17.955,31.564 18.271,31.564 18.271,29.023 		"/>
		<polygon fill="#FFFFFF" points="19.623,28.729 19.307,28.729 19.307,31.564 19.623,31.564 19.623,28.729 		"/>
		<path fill="#FFFFFF" d="M21.539,28.682c-0.809,0-1.479,0.657-1.479,1.471c0,0.816,0.67,1.461,1.479,1.461
			c0.808,0,1.478-0.645,1.478-1.461C23.017,29.339,22.347,28.682,21.539,28.682L21.539,28.682L21.539,28.682z M21.539,28.975
			c0.65,0,1.161,0.53,1.161,1.174c0,0.64-0.519,1.172-1.161,1.172c-0.644,0-1.162-0.532-1.162-1.172
			C20.377,29.505,20.888,28.975,21.539,28.975L21.539,28.975L21.539,28.975z"/>
		<polygon fill="#FFFFFF" points="23.489,31.564 23.805,31.564 23.805,29.381 26.016,31.691 26.016,28.729 25.7,28.729 25.7,30.926 
			23.489,28.609 23.489,31.564 		"/>
		<path fill="#FFFFFF" d="M29.133,28.682c-0.809,0-1.479,0.657-1.479,1.471c0,0.816,0.67,1.461,1.479,1.461
			c0.808,0,1.478-0.645,1.478-1.461C30.61,29.339,29.94,28.682,29.133,28.682L29.133,28.682L29.133,28.682z M29.133,28.975
			c0.65,0,1.161,0.53,1.161,1.174c0,0.64-0.519,1.172-1.161,1.172c-0.644,0-1.162-0.532-1.162-1.172
			C27.971,29.505,28.482,28.975,29.133,28.975L29.133,28.975L29.133,28.975z"/>
		<polygon fill="#FFFFFF" points="32.354,29.023 32.354,28.729 31.063,28.729 31.063,31.564 31.38,31.564 31.38,30.159 
			32.323,30.159 32.323,29.865 31.38,29.865 31.38,29.023 32.354,29.023 		"/>
		<polygon fill="#FFFFFF" points="34.792,29.023 35.484,29.023 35.484,28.729 33.792,28.729 33.792,29.023 34.477,29.023 
			34.477,31.564 34.792,31.564 34.792,29.023 		"/>
		<path fill="#FFFFFF" d="M36.129,28.729h-0.315v1.775c0,0.323,0.03,0.582,0.278,0.818c0.191,0.189,0.466,0.289,0.733,0.289
			c0.285,0,0.567-0.111,0.763-0.322c0.226-0.232,0.248-0.477,0.248-0.785v-1.775h-0.315v1.688c0,0.222,0.012,0.472-0.14,0.651
			c-0.131,0.156-0.354,0.25-0.556,0.25c-0.207,0-0.448-0.098-0.572-0.271c-0.131-0.181-0.124-0.421-0.124-0.632V28.729
			L36.129,28.729L36.129,28.729z"/>
		<path fill="#FFFFFF" d="M38.731,29.023h0.095c0.38,0,0.722,0.045,0.722,0.511c0,0.44-0.361,0.508-0.719,0.508h-0.098V29.023
			L38.731,29.023L38.731,29.023z M38.731,30.32h0.079l0.857,1.244h0.388l-0.902-1.271c0.436-0.038,0.71-0.347,0.71-0.782
			c0-0.64-0.5-0.781-1.037-0.781h-0.41v2.836h0.315V30.32L38.731,30.32L38.731,30.32z"/>
		<polygon fill="#FFFFFF" points="40.786,29.943 40.786,28.729 40.471,28.729 40.471,31.564 40.786,31.564 40.786,30.344 
			40.865,30.264 42.027,31.564 42.464,31.564 41.087,30.05 42.418,28.729 41.993,28.729 40.786,29.943 		"/>
		<polygon fill="#FFFFFF" points="43.107,28.729 42.793,28.729 42.793,31.564 43.107,31.564 43.107,28.729 		"/>
		<path fill="#FFFFFF" d="M45.229,29.121c-0.15-0.277-0.418-0.439-0.733-0.439c-0.421,0-0.793,0.281-0.793,0.723
			c0,0.404,0.286,0.574,0.616,0.726l0.174,0.075c0.263,0.12,0.521,0.232,0.521,0.563c0,0.319-0.277,0.553-0.582,0.553
			c-0.306,0-0.527-0.235-0.568-0.525l-0.309,0.087c0.09,0.438,0.43,0.731,0.885,0.731c0.492,0,0.891-0.379,0.891-0.875
			c0-0.45-0.313-0.635-0.682-0.797l-0.188-0.084c-0.191-0.086-0.443-0.197-0.443-0.442c0-0.261,0.219-0.438,0.471-0.438
			c0.24,0,0.375,0.111,0.488,0.308L45.229,29.121L45.229,29.121L45.229,29.121z"/>
		<polygon fill="#FFFFFF" points="46.139,29.881 46.139,28.729 45.822,28.729 45.822,31.564 46.139,31.564 46.139,30.174 
			47.59,30.174 47.59,31.564 47.904,31.564 47.904,28.729 47.59,28.729 47.59,29.881 46.139,29.881 		"/>
		<polygon fill="#FFFFFF" points="50.432,29.023 51.124,29.023 51.124,28.729 49.432,28.729 49.432,29.023 50.116,29.023 
			50.116,31.564 50.432,31.564 50.432,29.023 		"/>
		<path fill="#FFFFFF" d="M51.775,29.023h0.095c0.38,0,0.722,0.045,0.722,0.511c0,0.44-0.359,0.508-0.718,0.508h-0.099V29.023
			L51.775,29.023L51.775,29.023z M51.775,30.32h0.08l0.856,1.244H53.1l-0.902-1.271c0.438-0.038,0.712-0.347,0.712-0.782
			c0-0.64-0.5-0.781-1.038-0.781h-0.41v2.836h0.316V30.32H51.775L51.775,30.32z"/>
		<path fill="#FFFFFF" d="M55.15,30.762l0.334,0.805h0.351l-1.274-2.971l-1.309,2.971h0.346l0.342-0.805H55.15L55.15,30.762
			L55.15,30.762z M55.025,30.467h-0.959l0.486-1.136L55.025,30.467L55.025,30.467L55.025,30.467z"/>
		<polygon fill="#FFFFFF" points="55.863,28.729 55.521,28.729 56.673,31.734 57.822,28.729 57.48,28.729 56.673,30.893 
			55.863,28.729 		"/>
		<polygon fill="#FFFFFF" points="58.148,31.564 59.62,31.564 59.62,31.271 58.465,31.271 58.465,30.159 59.586,30.159 
			59.586,29.865 58.465,29.865 58.465,29.023 59.62,29.023 59.62,28.729 58.148,28.729 58.148,31.564 		"/>
		<polygon fill="#FFFFFF" points="60.488,28.729 60.174,28.729 60.174,31.564 61.271,31.564 61.271,31.271 60.488,31.271 
			60.488,28.729 		"/>
		<path fill="#FFFFFF" d="M64.396,30.762l0.334,0.805h0.351l-1.274-2.971l-1.309,2.971h0.346l0.342-0.805H64.396L64.396,30.762
			L64.396,30.762z M64.271,30.467h-0.959l0.485-1.136L64.271,30.467L64.271,30.467L64.271,30.467z"/>
		<path fill="#FFFFFF" d="M66.865,30.141v0.293h0.843c0,0.525-0.521,0.887-1.013,0.887c-0.297,0-0.598-0.153-0.805-0.36
			c-0.211-0.214-0.33-0.5-0.33-0.8c0-0.641,0.512-1.186,1.157-1.186c0.417,0,0.737,0.199,0.974,0.534l0.229-0.215
			c-0.301-0.392-0.703-0.612-1.198-0.612c-0.815,0-1.479,0.662-1.479,1.475c0,0.797,0.662,1.457,1.459,1.457
			c0.395,0,0.789-0.172,1.049-0.473s0.301-0.617,0.293-1H66.865L66.865,30.141L66.865,30.141z"/>
		<polygon fill="#FFFFFF" points="68.518,31.564 69.986,31.564 69.986,31.271 68.833,31.271 68.833,30.159 69.954,30.159 
			69.954,29.865 68.833,29.865 68.833,29.023 69.986,29.023 69.986,28.729 68.518,28.729 68.518,31.564 		"/>
		<polygon fill="#FFFFFF" points="70.561,31.564 70.876,31.564 70.876,29.381 73.087,31.691 73.087,28.729 72.771,28.729 
			72.771,30.926 70.561,28.609 70.561,31.564 		"/>
		<path fill="#FFFFFF" d="M75.863,28.959c-0.25-0.188-0.528-0.277-0.846-0.277c-0.813,0-1.478,0.666-1.478,1.479
			c0,0.805,0.677,1.453,1.478,1.453c0.301,0,0.603-0.1,0.846-0.276v-0.392c-0.225,0.226-0.536,0.375-0.855,0.375
			c-0.636,0-1.15-0.549-1.15-1.172c0-0.625,0.512-1.174,1.144-1.174c0.327,0,0.64,0.144,0.864,0.377v-0.393H75.863L75.863,28.959z"
			/>
		<polygon fill="#FFFFFF" points="76.743,28.729 76.428,28.729 76.428,31.564 76.743,31.564 76.743,28.729 		"/>
		<polygon fill="#FFFFFF" points="77.324,31.564 78.795,31.564 78.795,31.271 77.641,31.271 77.641,30.159 78.762,30.159 
			78.762,29.865 77.641,29.865 77.641,29.023 78.795,29.023 78.795,28.729 77.324,28.729 77.324,31.564 		"/>
		<path fill="#FFFFFF" d="M80.887,29.121c-0.15-0.277-0.418-0.439-0.732-0.439c-0.422,0-0.795,0.281-0.795,0.723
			c0,0.404,0.287,0.574,0.617,0.726l0.174,0.075c0.263,0.12,0.521,0.232,0.521,0.563c0,0.319-0.277,0.553-0.583,0.553
			c-0.305,0-0.526-0.235-0.567-0.525l-0.309,0.087c0.09,0.438,0.43,0.731,0.885,0.731c0.491,0,0.891-0.379,0.891-0.875
			c0-0.45-0.313-0.635-0.682-0.797l-0.188-0.084c-0.191-0.086-0.444-0.197-0.444-0.442c0-0.261,0.22-0.438,0.472-0.438
			c0.24,0,0.375,0.111,0.487,0.308L80.887,29.121L80.887,29.121L80.887,29.121z"/>
		<polygon fill="#FFFFFF" points="2.238,24.441 2.81,24.441 2.81,23.961 1.114,23.961 1.114,24.441 1.686,24.441 1.686,26.797 
			2.238,26.797 2.238,24.441 		"/>
		<path fill="#FFFFFF" d="M4.027,22.941c-0.165,0-0.301,0.137-0.301,0.302s0.136,0.301,0.301,0.301s0.301-0.136,0.301-0.301
			S4.192,22.941,4.027,22.941L4.027,22.941L4.027,22.941z M4.82,22.941c-0.165,0-0.3,0.137-0.3,0.302s0.135,0.301,0.3,0.301
			c0.166,0,0.302-0.136,0.302-0.301S4.986,22.941,4.82,22.941L4.82,22.941L4.82,22.941z M3.369,25.656
			c0,0.693,0.294,1.216,1.053,1.216c0.76,0,1.053-0.522,1.053-1.216v-1.695H4.922v1.587c0,0.351-0.029,0.843-0.5,0.843
			c-0.47,0-0.5-0.492-0.5-0.843v-1.587H3.369V25.656L3.369,25.656L3.369,25.656z"/>
		<path fill="#FFFFFF" d="M7.36,25.602c0.38-0.063,0.579-0.426,0.579-0.787c0-0.604-0.387-0.854-0.947-0.854H6.244v2.836h0.553
			v-1.145h0.008l0.688,1.145h0.669L7.36,25.602L7.36,25.602L7.36,25.602z M6.797,24.413h0.075c0.293,0,0.515,0.067,0.515,0.417
			c0,0.346-0.214,0.436-0.519,0.436H6.797V24.413L6.797,24.413L6.797,24.413z"/>
		<polygon fill="#FFFFFF" points="9.276,25.156 9.269,25.156 9.269,23.961 8.716,23.961 8.716,26.797 9.269,26.797 9.269,25.521 
			9.276,25.521 10.183,26.797 10.893,26.797 9.758,25.271 10.833,23.961 10.152,23.961 9.276,25.156 		"/>
		<path fill="#FFFFFF" d="M11.702,23.21c-0.166,0-0.302,0.136-0.302,0.3c0,0.166,0.136,0.303,0.302,0.303
			c0.165,0,0.3-0.137,0.3-0.303C12.002,23.346,11.867,23.21,11.702,23.21L11.702,23.21L11.702,23.21z M11.977,23.961h-0.553v2.836
			h0.553V23.961L11.977,23.961L11.977,23.961z"/>
		<polygon fill="#FFFFFF" points="13.36,25.495 13.36,26.797 13.913,26.797 13.913,25.495 14.809,23.961 14.161,23.961 
			13.62,24.945 13.124,23.961 12.481,23.961 13.36,25.495 		"/>
		<polygon fill="#FFFFFF" points="16.794,24.441 16.794,23.961 15.327,23.961 15.327,26.797 16.794,26.797 16.794,26.314 
			15.88,26.314 15.88,25.548 16.76,25.548 16.76,25.066 15.88,25.066 15.88,24.441 16.794,24.441 		"/>
		<path fill="#FFFFFF" d="M22.013,24.202c-0.173-0.192-0.522-0.315-0.774-0.315c-0.478,0-0.827,0.379-0.827,0.85
			c0,0.439,0.268,0.625,0.632,0.775c0.222,0.086,0.492,0.168,0.492,0.461c0,0.219-0.139,0.41-0.364,0.41
			c-0.237,0-0.437-0.195-0.512-0.414l-0.357,0.352c0.196,0.326,0.481,0.553,0.873,0.553c0.579,0,0.933-0.402,0.933-0.971
			c0-0.951-1.125-0.752-1.125-1.229c0-0.185,0.17-0.319,0.347-0.319c0.184,0,0.319,0.09,0.425,0.232L22.013,24.202L22.013,24.202
			L22.013,24.202z"/>
		<polygon fill="#FFFFFF" points="24.236,24.441 24.236,23.961 22.77,23.961 22.77,26.797 24.236,26.797 24.236,26.314 
			23.322,26.314 23.322,25.548 24.202,25.548 24.202,25.066 23.322,25.066 23.322,24.441 24.236,24.441 		"/>
		<polygon fill="#FFFFFF" points="25.593,25.495 25.593,26.797 26.146,26.797 26.146,25.495 27.041,23.961 26.394,23.961 
			25.853,24.945 25.356,23.961 24.713,23.961 25.593,25.495 		"/>
		<path fill="#FFFFFF" d="M28.669,26.197l0.218,0.6h0.59l-1.075-2.91h-0.429l-1.105,2.91h0.583l0.233-0.6H28.669L28.669,26.197
			L28.669,26.197z M28.515,25.747h-0.673l0.312-1.03h0.008L28.515,25.747L28.515,25.747L28.515,25.747z"/>
		<polygon fill="#FFFFFF" points="30.577,25.078 30.577,23.961 30.024,23.961 30.024,26.797 30.577,26.797 30.577,25.529 
			31.6,25.529 31.6,26.797 32.152,26.797 32.152,23.961 31.6,23.961 31.6,25.078 30.577,25.078 		"/>
		<path fill="#FFFFFF" d="M34.501,26.197l0.218,0.6h0.591l-1.076-2.91h-0.429l-1.104,2.91h0.582l0.233-0.6H34.501L34.501,26.197
			L34.501,26.197z M34.347,25.747h-0.673l0.312-1.03h0.008L34.347,25.747L34.347,25.747L34.347,25.747z"/>
		<polygon fill="#FFFFFF" points="36.551,24.441 37.122,24.441 37.122,23.961 35.426,23.961 35.426,24.441 35.997,24.441 
			35.997,26.797 36.551,26.797 36.551,24.441 		"/>
		<path fill="#FFFFFF" d="M42.146,26.197l0.217,0.6h0.592l-1.075-2.91h-0.43l-1.105,2.91h0.583l0.232-0.6H42.146L42.146,26.197
			L42.146,26.197z M41.991,25.747h-0.673l0.312-1.03h0.009L41.991,25.747L41.991,25.747L41.991,25.747z"/>
		<path fill="#FFFFFF" d="M45.396,24.053c-0.192-0.105-0.41-0.166-0.633-0.166c-0.83,0-1.397,0.711-1.397,1.516
			c0,0.781,0.59,1.471,1.387,1.471c0.229,0,0.437-0.072,0.644-0.17v-0.658c-0.153,0.178-0.392,0.303-0.627,0.303
			c-0.517,0-0.832-0.479-0.832-0.957c0-0.488,0.306-0.977,0.836-0.977c0.235,0,0.47,0.111,0.623,0.3V24.053L45.396,24.053
			L45.396,24.053z"/>
		<polygon fill="#FFFFFF" points="47.604,24.441 47.604,23.961 46.137,23.961 46.137,26.797 47.604,26.797 47.604,26.314 
			46.688,26.314 46.688,25.548 47.568,25.548 47.568,25.066 46.688,25.066 46.688,24.441 47.604,24.441 		"/>
		<polygon fill="#FFFFFF" points="48.343,26.797 48.896,26.797 48.896,24.871 48.902,24.871 50.396,26.854 50.794,26.854 
			50.794,23.961 50.241,23.961 50.241,25.867 50.234,25.867 48.741,23.887 48.343,23.887 48.343,26.797 		"/>
		<polygon fill="#FFFFFF" points="52.498,24.441 53.07,24.441 53.07,23.961 51.374,23.961 51.374,24.441 51.945,24.441 
			51.945,26.797 52.498,26.797 52.498,24.441 		"/>
		<path fill="#FFFFFF" d="M54.98,26.197l0.219,0.6h0.591l-1.076-2.91h-0.429l-1.105,2.91h0.584l0.232-0.6H54.98L54.98,26.197
			L54.98,26.197z M54.827,25.747h-0.673l0.312-1.03h0.009L54.827,25.747L54.827,25.747L54.827,25.747z"/>
		<polygon fill="#FFFFFF" points="56.891,23.961 56.337,23.961 56.337,26.797 57.672,26.797 57.672,26.314 56.891,26.314 
			56.891,23.961 		"/>
		<path fill="#FFFFFF" d="M59.782,26.197l0.218,0.6h0.59l-1.074-2.91h-0.43l-1.105,2.91h0.584l0.232-0.6H59.782L59.782,26.197
			L59.782,26.197z M59.628,25.747h-0.673l0.313-1.03h0.008L59.628,25.747L59.628,25.747L59.628,25.747z"/>
		<path fill="#FFFFFF" d="M62.254,25.602c0.38-0.063,0.579-0.426,0.579-0.787c0-0.604-0.388-0.854-0.946-0.854h-0.748v2.836h0.553
			v-1.145h0.008l0.688,1.145h0.67L62.254,25.602L62.254,25.602L62.254,25.602z M61.689,24.413h0.076
			c0.293,0,0.514,0.067,0.514,0.417c0,0.346-0.213,0.436-0.518,0.436h-0.072V24.413L61.689,24.413L61.689,24.413z"/>
		<polygon fill="#FFFFFF" points="64.162,23.961 63.609,23.961 63.609,26.797 64.162,26.797 64.162,23.961 		"/>
		<path fill="#FFFFFF" d="M68.368,25.563h0.09c0.278,0,0.579,0.016,0.579,0.383c0,0.369-0.256,0.406-0.553,0.406h-0.116V25.563
			L68.368,25.563L68.368,25.563z M67.814,26.797h0.869c0.516,0,0.905-0.248,0.905-0.805c0-0.313-0.149-0.651-0.485-0.711
			c0.178-0.112,0.25-0.346,0.25-0.549c0-0.564-0.324-0.771-0.852-0.771h-0.688V26.797L67.814,26.797L67.814,26.797z M68.368,24.404
			h0.071c0.232,0,0.397,0.076,0.397,0.365c0,0.293-0.132,0.373-0.401,0.373h-0.067V24.404L68.368,24.404L68.368,24.404z"/>
		<path fill="#FFFFFF" d="M70.547,23.21c-0.165,0-0.301,0.136-0.301,0.3c0,0.166,0.136,0.303,0.301,0.303s0.301-0.137,0.301-0.303
			C70.848,23.346,70.712,23.21,70.547,23.21L70.547,23.21L70.547,23.21z M70.82,23.961h-0.553v2.836h0.553V23.961L70.82,23.961
			L70.82,23.961z"/>
		<path fill="#FFFFFF" d="M72.706,25.602c0.38-0.063,0.579-0.426,0.579-0.787c0-0.604-0.389-0.854-0.947-0.854h-0.749v2.836h0.554
			v-1.145h0.008l0.688,1.145h0.67L72.706,25.602L72.706,25.602L72.706,25.602z M72.143,24.413h0.074
			c0.295,0,0.516,0.067,0.516,0.417c0,0.346-0.215,0.436-0.52,0.436h-0.07V24.413L72.143,24.413L72.143,24.413z"/>
		<polygon fill="#FFFFFF" points="74.613,23.961 74.061,23.961 74.061,26.797 75.396,26.797 75.396,26.314 74.613,26.314 
			74.613,23.961 		"/>
		<path fill="#FFFFFF" d="M76.221,23.21c-0.166,0-0.302,0.136-0.302,0.3c0,0.166,0.136,0.303,0.302,0.303s0.301-0.137,0.301-0.303
			C76.521,23.346,76.387,23.21,76.221,23.21L76.221,23.21L76.221,23.21z M76.494,23.961h-0.553v2.836h0.553V23.961L76.494,23.961
			L76.494,23.961z"/>
		<path fill="#FFFFFF" d="M77.797,23.152c0.033,0.351,0.301,0.586,0.65,0.586c0.349,0,0.615-0.235,0.65-0.586h-0.369
			c-0.033,0.15-0.117,0.268-0.281,0.268c-0.166,0-0.248-0.117-0.282-0.268H77.797L77.797,23.152L77.797,23.152z M78.545,25.288
			v0.452h0.602c-0.012,0.342-0.301,0.643-0.646,0.643c-0.534,0-0.802-0.521-0.802-0.992s0.264-1.016,0.798-1.016
			c0.293,0,0.532,0.195,0.646,0.451l0.488-0.264c-0.218-0.433-0.639-0.676-1.119-0.676c-0.847,0-1.385,0.694-1.385,1.502
			c0,0.782,0.521,1.482,1.35,1.482c0.881,0,1.291-0.711,1.291-1.512v-0.072L78.545,25.288L78.545,25.288L78.545,25.288z"/>
		<path fill="#FFFFFF" d="M80.697,23.21c-0.164,0-0.301,0.136-0.301,0.3c0,0.166,0.137,0.303,0.301,0.303
			c0.166,0,0.303-0.137,0.303-0.303C81,23.346,80.863,23.21,80.697,23.21L80.697,23.21L80.697,23.21z M80.973,23.961h-0.552v2.836
			h0.552V23.961L80.973,23.961L80.973,23.961z"/>
	</g>
	<polygon fill="#6D6E70" points="1.666,4.716 1.666,1.584 1.018,1.584 1.018,4.716 	"/>
	<polygon fill="#6D6F71" points="2.29,4.716 2.29,1.584 1.643,1.584 1.643,4.716 	"/>
	<polygon fill="#6E7072" points="2.915,4.716 2.915,1.584 2.267,1.584 2.267,4.716 	"/>
	<polygon fill="#6F7073" points="3.539,4.716 3.539,1.584 2.892,1.584 2.892,4.716 	"/>
	<polygon fill="#707174" points="4.164,4.716 4.164,1.584 3.516,1.584 3.516,4.716 	"/>
	<polygon fill="#717275" points="4.788,4.716 4.788,1.584 4.141,1.584 4.141,4.716 	"/>
	<polygon fill="#717375" points="5.413,4.716 5.413,1.584 4.765,1.584 4.765,4.716 	"/>
	<polygon fill="#727476" points="6.037,4.716 6.037,1.584 5.39,1.584 5.39,4.716 	"/>
	<polygon fill="#737477" points="6.662,4.716 6.662,1.584 6.014,1.584 6.014,4.716 	"/>
	<polygon fill="#747578" points="7.286,4.716 7.286,1.584 6.639,1.584 6.639,4.716 	"/>
	<polygon fill="#747678" points="7.911,4.716 7.911,1.584 7.263,1.584 7.263,4.716 	"/>
	<polygon fill="#757779" points="8.535,4.716 8.535,1.584 7.888,1.584 7.888,4.716 	"/>
	<polygon fill="#76777A" points="9.16,4.716 9.16,1.584 8.512,1.584 8.512,4.716 	"/>
	<polygon fill="#77787B" points="9.784,4.716 9.784,1.584 9.137,1.584 9.137,4.716 	"/>
	<polygon fill="#77797C" points="10.409,4.716 10.409,1.584 9.761,1.584 9.761,4.716 	"/>
	<polygon fill="#787A7C" points="11.033,4.716 11.033,1.584 10.386,1.584 10.386,4.716 	"/>
	<polygon fill="#797B7D" points="11.657,4.716 11.657,1.584 11.01,1.584 11.01,4.716 	"/>
	<polygon fill="#8D8F91" points="28.519,4.716 28.519,1.584 27.87,1.584 27.87,4.716 	"/>
	<polygon fill="#8D8F92" points="29.143,4.716 29.143,1.584 28.495,1.584 28.495,4.716 	"/>
	<polygon fill="#8E9093" points="29.768,4.716 29.768,1.584 29.119,1.584 29.119,4.716 	"/>
	<polygon fill="#8F9194" points="30.392,4.716 30.392,1.584 29.743,1.584 29.743,4.716 	"/>
	<polygon fill="#909294" points="31.017,4.716 31.017,1.584 30.368,1.584 30.368,4.716 	"/>
	<polygon fill="#909295" points="31.641,4.716 31.641,1.584 30.992,1.584 30.992,4.716 	"/>
	<polygon fill="#919396" points="32.265,4.716 32.265,1.584 31.617,1.584 31.617,4.716 	"/>
	<polygon fill="#929497" points="32.89,4.716 32.89,1.584 32.241,1.584 32.241,4.716 	"/>
	<polygon fill="#939597" points="33.514,4.716 33.514,1.584 32.866,1.584 32.866,4.716 	"/>
	<polygon fill="#939598" points="34.139,4.716 34.139,1.584 33.49,1.584 33.49,4.716 	"/>
	<polygon fill="#949699" points="34.763,4.716 34.763,1.584 34.115,1.584 34.115,4.716 	"/>
	<polygon fill="#95979A" points="35.388,4.716 35.388,1.584 34.739,1.584 34.739,4.716 	"/>
	<polygon fill="#96989A" points="36.012,4.716 36.012,1.584 35.364,1.584 35.364,4.716 	"/>
	<polygon fill="#96999B" points="36.636,4.716 36.636,1.584 35.988,1.584 35.988,4.716 	"/>
	<polygon fill="#97999C" points="37.261,4.716 37.261,1.584 36.613,1.584 36.613,4.716 	"/>
	<polygon fill="#989A9D" points="37.886,4.716 37.886,1.584 37.237,1.584 37.237,4.716 	"/>
	<polygon fill="#999B9D" points="38.51,4.716 38.51,1.584 37.861,1.584 37.861,4.716 	"/>
	<polygon fill="#9A9C9E" points="39.134,4.716 39.134,1.584 38.486,1.584 38.486,4.716 	"/>
	<polygon fill="#9A9C9F" points="39.759,4.716 39.759,1.584 39.11,1.584 39.11,4.716 	"/>
	<polygon fill="#9B9DA0" points="40.384,4.716 40.384,1.584 39.735,1.584 39.735,4.716 	"/>
	<polygon fill="#9C9EA1" points="41.008,4.716 41.008,1.584 40.359,1.584 40.359,4.716 	"/>
	<polygon fill="#9D9FA1" points="41.632,4.716 41.632,1.584 40.984,1.584 40.984,4.716 	"/>
	<polygon fill="#9DA0A2" points="42.257,4.716 42.257,1.584 41.607,1.584 41.607,4.716 	"/>
	<polygon fill="#9EA0A3" points="42.881,4.716 42.881,1.584 42.232,1.584 42.232,4.716 	"/>
	<polygon fill="#9FA1A4" points="43.506,4.716 43.506,1.584 42.857,1.584 42.857,4.716 	"/>
	<polygon fill="#A0A2A4" points="44.13,4.716 44.13,1.584 43.482,1.584 43.482,4.716 	"/>
	<polygon fill="#A1A3A5" points="44.755,4.716 44.755,1.584 44.105,1.584 44.105,4.716 	"/>
	<polygon fill="#A1A3A6" points="45.379,4.716 45.379,1.584 44.73,1.584 44.73,4.716 	"/>
	<polygon fill="#A2A4A7" points="46.004,4.716 46.004,1.584 45.355,1.584 45.355,4.716 	"/>
	<polygon fill="#A3A5A8" points="46.628,4.716 46.628,1.584 45.979,1.584 45.979,4.716 	"/>
	<polygon fill="#A4A6A8" points="47.252,4.716 47.252,1.584 46.604,1.584 46.604,4.716 	"/>
	<polygon fill="#A4A7A9" points="47.877,4.716 47.877,1.584 47.229,1.584 47.229,4.716 	"/>
	<polygon fill="#A5A7AA" points="48.501,4.716 48.501,1.584 47.854,1.584 47.854,4.716 	"/>
	<polygon fill="#A6A8AB" points="49.126,4.716 49.126,1.584 48.479,1.584 48.479,4.716 	"/>
	<polygon fill="#A7A9AC" points="49.75,4.716 49.75,1.584 49.104,1.584 49.104,4.716 	"/>
	<polygon fill="#A8AAAC" points="50.375,4.716 50.375,1.584 49.727,1.584 49.727,4.716 	"/>
	<polygon fill="#A8ABAD" points="50.999,4.716 50.999,1.584 50.352,1.584 50.352,4.716 	"/>
	<polygon fill="#A9ABAE" points="51.624,4.716 51.624,1.584 50.977,1.584 50.977,4.716 	"/>
	<polygon fill="#AAACAF" points="52.248,4.716 52.248,1.584 51.6,1.584 51.6,4.716 	"/>
	<polygon fill="#ABADAF" points="52.873,4.716 52.873,1.584 52.225,1.584 52.225,4.716 	"/>
	<polygon fill="#ACAEB0" points="53.497,4.716 53.497,1.584 52.85,1.584 52.85,4.716 	"/>
	<polygon fill="#ADAFB1" points="54.121,4.716 54.121,1.584 53.475,1.584 53.475,4.716 	"/>
	<polygon fill="#ADAFB2" points="54.746,4.716 54.746,1.584 54.098,1.584 54.098,4.716 	"/>
	<polygon fill="#AEB0B3" points="55.37,4.716 55.37,1.584 54.723,1.584 54.723,4.716 	"/>
	<polygon fill="#AFB1B3" points="55.995,4.716 55.995,1.584 55.348,1.584 55.348,4.716 	"/>
	<polygon fill="#B0B2B4" points="56.619,4.716 56.619,1.584 55.973,1.584 55.973,4.716 	"/>
	<polygon fill="#B1B3B5" points="57.244,4.716 57.244,1.584 56.596,1.584 56.596,4.716 	"/>
	<polygon fill="#B1B3B6" points="57.868,4.716 57.868,1.584 57.221,1.584 57.221,4.716 	"/>
	<polygon fill="#B2B4B7" points="58.493,4.716 58.493,1.584 57.846,1.584 57.846,4.716 	"/>
	<polygon fill="#B3B5B7" points="59.117,4.716 59.117,1.584 58.471,1.584 58.471,4.716 	"/>
	<polygon fill="#B4B6B8" points="59.741,4.716 59.741,1.584 59.094,1.584 59.094,4.716 	"/>
	<polygon fill="#B5B7B9" points="60.366,4.716 60.366,1.584 59.718,1.584 59.718,4.716 	"/>
	<polygon fill="#B6B8BA" points="60.991,4.716 60.991,1.584 60.343,1.584 60.343,4.716 	"/>
	<polygon fill="#B6B8BB" points="61.615,4.716 61.615,1.584 60.967,1.584 60.967,4.716 	"/>
	<polygon fill="#B7B9BB" points="62.238,4.716 62.238,1.584 61.592,1.584 61.592,4.716 	"/>
	<polygon fill="#B8BABC" points="62.863,4.716 62.863,1.584 62.216,1.584 62.216,4.716 	"/>
	<polygon fill="#B9BBBD" points="63.488,4.716 63.488,1.584 62.841,1.584 62.841,4.716 	"/>
	<polygon fill="#BABCBE" points="64.113,4.716 64.113,1.584 63.465,1.584 63.465,4.716 	"/>
	<polygon fill="#BBBCBF" points="64.736,4.716 64.736,1.584 64.09,1.584 64.09,4.716 	"/>
	<polygon fill="#BBBDBF" points="65.361,4.716 65.361,1.584 64.714,1.584 64.714,4.716 	"/>
	<polygon fill="#BCBEC0" points="65.986,4.716 65.986,1.584 65.339,1.584 65.339,4.716 	"/>
	<polygon fill="#BDBFC1" points="66.611,4.716 66.611,1.584 65.963,1.584 65.963,4.716 	"/>
	<polygon fill="#BEC0C2" points="67.234,4.716 67.234,1.584 66.588,1.584 66.588,4.716 	"/>
	<polygon fill="#BFC1C3" points="67.859,4.716 67.859,1.584 67.212,1.584 67.212,4.716 	"/>
	<polygon fill="#C0C1C3" points="68.484,4.716 68.484,1.584 67.836,1.584 67.836,4.716 	"/>
	<polygon fill="#C0C2C4" points="69.107,4.716 69.107,1.584 68.461,1.584 68.461,4.716 	"/>
	<polygon fill="#C1C3C5" points="69.732,4.716 69.732,1.584 69.085,1.584 69.085,4.716 	"/>
	<polygon fill="#C2C4C6" points="70.357,4.716 70.357,1.584 69.71,1.584 69.71,4.716 	"/>
	<polygon fill="#C3C5C7" points="70.982,4.716 70.982,1.584 70.334,1.584 70.334,4.716 	"/>
	<polygon fill="#C4C5C7" points="71.605,4.716 71.605,1.584 70.959,1.584 70.959,4.716 	"/>
	<polygon fill="#C4C6C8" points="72.23,4.716 72.23,1.584 71.583,1.584 71.583,4.716 	"/>
	<polygon fill="#C5C7C9" points="72.855,4.716 72.855,1.584 72.208,1.584 72.208,4.716 	"/>
	<polygon fill="#C6C8CA" points="73.48,4.716 73.48,1.584 72.832,1.584 72.832,4.716 	"/>
	<polygon fill="#C7C9CB" points="74.104,4.716 74.104,1.584 73.457,1.584 73.457,4.716 	"/>
	<polygon fill="#C8CACB" points="74.729,4.716 74.729,1.584 74.081,1.584 74.081,4.716 	"/>
	<polygon fill="#C9CACC" points="75.354,4.716 75.354,1.584 74.705,1.584 74.705,4.716 	"/>
	<polygon fill="#CACBCD" points="75.979,4.716 75.979,1.584 75.33,1.584 75.33,4.716 	"/>
	<polygon fill="#CACCCE" points="76.604,4.716 76.604,1.584 75.954,1.584 75.954,4.716 	"/>
	<polygon fill="#CBCDCF" points="77.227,4.716 77.227,1.584 76.579,1.584 76.579,4.716 	"/>
	<polygon fill="#CCCECF" points="77.852,4.716 77.852,1.584 77.203,1.584 77.203,4.716 	"/>
	<polygon fill="#CDCED0" points="78.477,4.716 78.477,1.584 77.828,1.584 77.828,4.716 	"/>
	<polygon fill="#CECFD1" points="79.102,4.716 79.102,1.584 78.452,1.584 78.452,4.716 	"/>
	<polygon fill="#CFD0D2" points="79.725,4.716 79.725,1.584 79.077,1.584 79.077,4.716 	"/>
	<polygon fill="#CFD1D2" points="80.35,4.716 80.35,1.584 79.701,1.584 79.701,4.716 	"/>
	<polygon fill="#D0D2D3" points="80.975,4.716 80.975,1.584 80.325,1.584 80.325,4.716 	"/>
	<path fill="#6D6E70" d="M18.624,11.136c0-0.577,0.468-1.045,1.045-1.045s1.045,0.468,1.045,1.045c0,0.576-0.468,1.044-1.045,1.044
		S18.624,11.712,18.624,11.136L18.624,11.136L18.624,11.136z"/>
	<path fill="#6D6E70" d="M18.624,7.7c0-0.577,0.468-1.045,1.045-1.045s1.045,0.468,1.045,1.045c0,0.577-0.468,1.045-1.045,1.045
		S18.624,8.277,18.624,7.7L18.624,7.7L18.624,7.7z"/>
	<path fill="#EF3E33" d="M15.134,5.488c-0.083-0.004-0.043-0.166-0.152-0.168c-0.035-0.061,0.034-0.104-0.012-0.158
		c-0.037,0.016-0.004,0.085-0.059,0.071c-0.052,0.004-0.029-0.051-0.04-0.079l-0.128,0.01c0.046-0.083-0.063-0.085-0.082-0.142
		c-0.036,0.008-0.038,0.085-0.089,0.055c-0.016-0.039-0.029-0.05-0.075-0.036c-0.051,0.073-0.086,0.219-0.212,0.186
		c0.014-0.057-0.087-0.194,0.043-0.178c0.012-0.015,0.027-0.01,0.031-0.026c-0.142-0.002-0.307,0.059-0.459-0.006
		c0.091-0.201,0.327,0.066,0.396-0.114l0.188-0.055c-0.002-0.026-0.045-0.089-0.093-0.101c-0.163-0.051-0.413,0.221-0.465-0.085
		c-0.092,0.002-0.061-0.093-0.078-0.158c0.029-0.053,0.108,0.037,0.132-0.026c-0.054-0.022-0.079-0.089-0.118-0.134l0.012-0.014
		c0.002-0.042-0.037-0.087-0.063-0.119c-0.088-0.014-0.153,0.081-0.248,0.022c0.02-0.15-0.234-0.104-0.072-0.217
		c0.092,0.067,0.188-0.055,0.244,0.063c0.023,0.041,0.064,0.008,0.084-0.004c0.006-0.024,0.029-0.053,0.002-0.077
		c-0.027,0.01-0.055,0.02-0.076,0.006c-0.062-0.093,0.104-0.051,0.033-0.138c-0.032-0.008-0.085-0.031-0.118-0.065
		c-0.006-0.044-0.021-0.083-0.058-0.109c-0.055-0.048-0.157-0.041-0.227,0.002c-0.056-0.04-0.065-0.137-0.086-0.194
		c0.028-0.01,0.071,0.018,0.093-0.002c-0.045-0.089-0.02-0.16,0.018-0.245c0.035-0.043,0.093-0.002,0.122,0.014
		c0.016,0.039-0.029,0.087-0.041,0.136c0.027,0.059,0.033,0.138,0.122,0.117l0.128-0.044c-0.01-0.097-0.217-0.107-0.114-0.219
		c0.035-0.008,0.041,0.002,0.081,0.012c0.025-0.071,0.183-0.1,0.119-0.185c-0.055-0.014-0.121,0.02-0.144-0.063L13.647,2.99
		c0.027-0.045,0.075-0.033,0.112-0.049C13.79,2.88,13.72,2.828,13.69,2.777c-0.045-0.021-0.08-0.081-0.08-0.116
		c0.053,0.022,0.102-0.042,0.136-0.077l0.047-0.091l-0.221-0.091c-0.101,0.035-0.188,0.124-0.299,0.096
		c-0.028-0.162,0.033-0.31,0.059-0.45c0.104,0.052,0.103-0.112,0.207-0.059c0.061-0.044,0.107-0.101,0.132-0.164l-0.024-0.006
		c0.028-0.079,0.101-0.034,0.154-0.081l0.027,0.024c0.21-0.075,0.435-0.104,0.669-0.035c0.176-0.033,0.335,0.103,0.498,0.05
		c0.065,0.008,0.154,0.057,0.225,0.04L15.165,1.7c0.084-0.004,0.194-0.114,0.285-0.073c0.06-0.002,0.114-0.022,0.163-0.053
		c0.004-0.223-0.51-0.07-0.258-0.35c-0.014-0.013-0.004-0.053-0.031-0.043c-0.041,0.102-0.126,0.175-0.24,0.197
		c-0.067,0-0.077-0.063-0.118-0.099c-0.193,0.037-0.394,0.037-0.591,0.055c-0.071,0.085-0.053,0.253-0.192,0.278
		c-0.093,0.002-0.205-0.019-0.272,0.051c-0.029,0.018-0.088-0.049-0.096,0.018c0.01-0.041,0.023-0.097-0.028-0.127
		c-0.086-0.022-0.212,0.049-0.266-0.077c-0.078,0.049-0.116-0.072-0.163-0.085c-0.004-0.053-0.063-0.05-0.091-0.075
		c0.108-0.17,0.066-0.379,0.134-0.551c0.161,0.024,0.063-0.259,0.233-0.275c0.012-0.048,0.056-0.089,0.104-0.085
		c0.128-0.011,0.278-0.006,0.374-0.094c0.063-0.053,0.15-0.065,0.211-0.006c0.051,0.099,0.182,0.115,0.285,0.133
		c0.05-0.03,0.095-0.044,0.148-0.022c0.006,0.148-0.004,0.326,0.157,0.385c0.036,0.061,0.128,0.059,0.168,0.103
		c0.072,0.114,0.227,0.102,0.311,0.201c0.087-0.012,0.217-0.065,0.306,0.018c0.118,0.133,0.327,0.032,0.436,0.172
		c0.175-0.033,0.324,0.006,0.506,0.018c0.08-0.022,0.114-0.091,0.14-0.162c0.242-0.032,0.314-0.298,0.561-0.312l-0.008-0.037
		c0.045-0.014,0.061,0.024,0.093,0.032c0.146-0.117,0.328-0.251,0.525-0.235c0.147-0.16,0.331,0.016,0.506-0.051
		c0.11,0.028,0.248,0.115,0.364,0.05c0.197,0.12,0.333-0.199,0.517-0.057c0.023,0.006,0.094-0.011,0.09,0.04
		c-0.025,0.071-0.147,0.091-0.078,0.187c0.057,0.006,0.173,0.01,0.225,0.075c0.107-0.066,0.173,0.079,0.275,0.002
		c0.053,0.022,0.112,0.055,0.104,0.122c-0.05,0.03-0.027,0.113,0.025,0.136c0.128-0.044,0.166,0.283,0.26,0.066
		c0.085-0.038,0.184-0.03,0.283,0.004c0.005,0.053-0.017,0.107,0.032,0.146c0.083-0.03,0.201-0.035,0.244,0.063
		c0.066-0.034,0.13-0.122,0.223-0.089c0.023,0.041,0.004,0.156,0.095,0.128c0.1-0.069,0.169,0.061,0.275,0.036
		c0.079-0.118,0.179-0.049,0.268-0.035c0.132-0.026,0.266-0.164,0.407-0.059c0.172-0.154,0.265,0.12,0.439,0.018
		c0.213-0.118,0.529-0.08,0.659-0.339c0.081-0.022,0.126-0.071,0.191-0.132c0.039-0.024,0-0.069,0.031-0.095
		c0.193,0.136,0.433,0.008,0.646,0.097c0.122-0.021,0.238-0.12,0.378-0.11c0.242,0.037,0.31,0.312,0.503,0.413
		c0.066,0.138,0.163,0.257,0.128,0.403c-0.058-0.006-0.099,0.061-0.077,0.109c0.065,0.077,0.019,0.168,0.073,0.251
		c0.147-0.022,0.288,0.091,0.441,0.044c0.112,0.021,0.097,0.154,0.108,0.243c-0.062,0.114,0.025,0.273-0.072,0.369
		c-0.048,0.057-0.085-0.03-0.139,0.017c-0.031,0.095,0.048,0.15,0.062,0.23c0.029,0.189,0.11,0.373,0.24,0.527
		c0.28,0.02-0.008,0.308,0.091,0.454c0.067,0,0.146,0.02,0.188,0.091c-0.12,0.184,0.058,0.35,0.065,0.524
		c-0.047,0.16-0.234,0.034-0.298,0.19c-0.055,0.021-0.082-0.073-0.096-0.12c0.004-0.016-0.01-0.028-0.014-0.046
		c-0.145-0.063-0.264,0.225-0.358-0.006c-0.104,0.016-0.213,0.049-0.31-0.002c-0.178,0.041-0.378,0.041-0.518,0.203
		c-0.085,0.073-0.165-0.008-0.248-0.012c-0.209,0.067-0.339,0.327-0.56,0.235c-0.171-0.087-0.372-0.087-0.537-0.026
		c-0.186,0.107-0.313,0.255-0.49,0.365c-0.165,0.061-0.345,0.041-0.506,0.12c-0.067,0-0.087-0.057-0.14-0.079
		c-0.167,0-0.313-0.089-0.482-0.081c-0.298,0.019-0.573,0.327-0.88,0.179c-0.002-0.026,0.025-0.036,0.023-0.063
		c-0.079,0.014-0.215-0.012-0.264,0.053c0.031,0.111,0.01,0.269,0.134,0.344c0.006,0.079-0.059,0.105-0.118,0.107l-0.051-0.03
		c-0.195,0.044-0.081,0.401-0.333,0.336c-0.07-0.019-0.134-0.069-0.157-0.144l0.064-0.129c-0.047-0.046-0.136-0.095-0.116-0.176
		c-0.006-0.217,0.496-0.32,0.149-0.513c-0.112,0.049-0.023,0.27-0.188,0.262c-0.12-0.057-0.246,0.118-0.353-0.03
		c-0.081-0.081-0.211-0.166-0.323-0.118c-0.104,0.017-0.197,0.122-0.311,0.11c-0.106,0.3-0.414,0.359-0.686,0.41
		c-0.153,0.15-0.347-0.089-0.504,0.008c-0.114-0.012-0.171-0.087-0.291-0.075c-0.125-0.041-0.097-0.223-0.207-0.286
		c-0.122,0.021-0.191-0.075-0.263-0.162C16.62,5.31,16.533,5.15,16.366,5.151c-0.058-0.041-0.158-0.075-0.225-0.041
		c-0.035,0.111,0.067,0.241-0.049,0.34c-0.01,0.075,0.01,0.131-0.048,0.194c-0.111,0.083-0.285-0.134-0.372,0.051
		c-0.098-0.042-0.173-0.01-0.254,0.013C15.309,5.662,15.211,5.585,15.134,5.488L15.134,5.488L15.134,5.488z"/>
	<path fill="#EF3E33" d="M27.565,21.141h5.182v-4.679h0.097l2.32,4.679h6.111l-3.172-4.738c-0.29-0.425-0.618-0.657-0.89-0.87
		v-0.116c1.973-0.657,2.823-1.585,2.823-3.79c0-3.674-2.784-5.066-6.071-5.066h-6.4V21.141L27.565,21.141L27.565,21.141z
		 M32.747,10.544h0.406c0.909,0,1.702,0.135,1.702,1.256c0,1.083-0.87,1.219-1.74,1.219h-0.368V10.544L32.747,10.544L32.747,10.544z
		"/>
	<path fill="#EF3E33" d="M58.016,19.322h4.002l0.483,1.818h5.606L62.906,6.56h-5.858l-5.065,14.581h5.606L58.016,19.322
		L58.016,19.322L58.016,19.322z M58.962,15.862l0.968-4.448h0.192c0.097,0.619,0.192,1.258,0.349,1.876l0.618,2.572H58.962
		L58.962,15.862L58.962,15.862z"/>
	<path fill="#EF3E33" d="M73.24,12.168V10.08h0.367c0.772,0,1.76-0.077,1.76,1.006c0,1.005-0.87,1.083-1.645,1.083L73.24,12.168
		L73.24,12.168L73.24,12.168z M68.329,21.141h7.213c2.552,0,5.337-1.023,5.337-4.021c0-1.741-1.006-2.901-2.592-3.461v-0.116
		c1.275-0.406,1.915-1.663,1.915-2.939c0-3.365-2.882-4.042-5.705-4.042h-6.168V21.141L68.329,21.141L68.329,21.141z M73.24,15.243
		h0.521c0.852,0,2.204-0.02,2.204,1.199c0,1.201-1.257,1.219-2.127,1.219h-0.601v-2.418H73.24L73.24,15.243z"/>
</g>
</svg>
