<?xml version="1.0" encoding="utf-8"?>
<!-- Generator: Adobe Illustrator 16.0.0, SVG Export Plug-In . SVG Version: 6.00 Build 0)  -->
<!DOCTYPE svg PUBLIC "-//W3C//DTD SVG 1.1//EN" "http://www.w3.org/Graphics/SVG/1.1/DTD/svg11.dtd">
<svg version="1.1" id="Layer_1" xmlns="http://www.w3.org/2000/svg" xmlns:xlink="http://www.w3.org/1999/xlink" x="0px" y="0px"
	 width="29.73px" height="30.271px" viewBox="0 0 29.73 30.271" enable-background="new 0 0 29.73 30.271" xml:space="preserve">
<circle fill="#016698" cx="14.865" cy="15.135" r="12.25"/>
<g>
	<path fill="#FFFFFF" d="M18.705,7.458l-1.992-0.003c-2.236,0-3.684,1.484-3.684,3.781v1.743h-2.002
		c-0.174,0-0.314,0.141-0.314,0.313v2.524c0,0.174,0.141,0.314,0.314,0.314h2.002v6.372c0,0.174,0.141,0.314,0.314,0.314h2.611
		c0.174,0,0.314-0.141,0.314-0.314V16.13h2.342c0.172,0,0.313-0.141,0.313-0.314v-2.524c0-0.083-0.031-0.163-0.09-0.222
		c-0.059-0.058-0.139-0.091-0.223-0.091h-2.342V11.5c0-0.71,0.168-1.071,1.094-1.071l1.342-0.001c0.172,0,0.313-0.14,0.313-0.313
		V7.771C19.017,7.598,18.878,7.458,18.705,7.458z"/>
</g>
</svg>
