<?xml version="1.0" encoding="utf-8"?>
<!-- Generator: Adobe Illustrator 16.0.0, SVG Export Plug-In . SVG Version: 6.00 Build 0)  -->
<!DOCTYPE svg PUBLIC "-//W3C//DTD SVG 1.1//EN" "http://www.w3.org/Graphics/SVG/1.1/DTD/svg11.dtd">
<svg version="1.1" id="Layer_1" xmlns="http://www.w3.org/2000/svg" xmlns:xlink="http://www.w3.org/1999/xlink" x="0px" y="0px"
	 width="29.73px" height="30.271px" viewBox="0 0 29.73 30.271" enable-background="new 0 0 29.73 30.271" xml:space="preserve">
<circle fill="#5E86A0" cx="14.865" cy="15.135" r="12.25"/>
<g>
	<path fill="#FFFFFF" d="M10.405,9.135h8.92c0.847,0,1.54,0.627,1.54,1.54v8.919c0,0.914-0.693,1.541-1.54,1.541h-8.92
		c-0.848,0-1.54-0.627-1.54-1.541v-8.919C8.865,9.762,9.557,9.135,10.405,9.135L10.405,9.135z M17.606,10.468
		c-0.297,0-0.54,0.243-0.54,0.541v1.293c0,0.297,0.243,0.541,0.54,0.541h1.356c0.298,0,0.54-0.243,0.54-0.541v-1.293
		c0-0.297-0.242-0.541-0.54-0.541H17.606L17.606,10.468z M19.508,14.21h-1.056c0.1,0.327,0.153,0.672,0.153,1.029
		c0,1.996-1.67,3.613-3.729,3.613s-3.729-1.617-3.729-3.613c0-0.357,0.053-0.704,0.153-1.029h-1.103v5.068
		c0,0.264,0.215,0.479,0.478,0.479h8.356c0.263,0,0.478-0.215,0.478-0.479L19.508,14.21L19.508,14.21z M14.875,12.774
		c-1.33,0-2.409,1.045-2.409,2.334c0,1.291,1.079,2.336,2.409,2.336c1.332,0,2.411-1.045,2.411-2.336
		C17.287,13.819,16.208,12.774,14.875,12.774z"/>
</g>
</svg>
