<?xml version="1.0" encoding="utf-8"?>
<!-- Generator: Adobe Illustrator 16.0.0, SVG Export Plug-In . SVG Version: 6.00 Build 0)  -->
<!DOCTYPE svg PUBLIC "-//W3C//DTD SVG 1.1//EN" "http://www.w3.org/Graphics/SVG/1.1/DTD/svg11.dtd">
<svg version="1.1" id="Layer_1" xmlns="http://www.w3.org/2000/svg" xmlns:xlink="http://www.w3.org/1999/xlink" x="0px" y="0px"
	 width="29.73px" height="30.271px" viewBox="0 0 29.73 30.271" enable-background="new 0 0 29.73 30.271" xml:space="preserve">
<circle fill="#4FA2CD" cx="15.48" cy="15.55" r="12.25"/>
<g>
	<g>
		<path fill="#FFFFFF" d="M22.531,11.177c-0.52,0.23-1.076,0.386-1.66,0.456c0.598-0.358,1.055-0.925,1.271-1.6
			c-0.561,0.332-1.18,0.572-1.84,0.702c-0.527-0.563-1.277-0.914-2.111-0.914c-1.598,0-2.893,1.295-2.893,2.892
			c0,0.227,0.025,0.448,0.076,0.66c-2.405-0.121-4.537-1.272-5.964-3.023c-0.249,0.426-0.392,0.924-0.392,1.454
			c0,1.004,0.512,1.89,1.287,2.408c-0.475-0.016-0.92-0.146-1.311-0.363v0.037c0,1.401,0.998,2.57,2.32,2.837
			c-0.242,0.065-0.498,0.102-0.762,0.102c-0.188,0-0.368-0.019-0.545-0.054c0.367,1.149,1.436,1.985,2.701,2.009
			c-0.989,0.776-2.236,1.236-3.593,1.236c-0.233,0-0.464-0.014-0.69-0.039c1.281,0.822,2.801,1.302,4.436,1.302
			c5.322,0,8.232-4.408,8.232-8.232l-0.012-0.375C21.654,12.267,22.144,11.757,22.531,11.177z"/>
	</g>
</g>
</svg>
